<svg width="155" height="53" viewBox="0 0 155 53" fill="none" xmlns="http://www.w3.org/2000/svg">
<rect y="0.120117" width="9.97228" height="52.2548" fill="#263654"/>
<rect x="118.871" y="0.120605" width="9.97228" height="52.2548" fill="#263654"/>
<rect x="16.7539" y="21.6602" width="9.97228" height="30.7146" fill="#263654"/>
<rect x="42.6816" y="0.120605" width="9.97228" height="30.7146" fill="#263654"/>
<rect x="144.398" y="0.120605" width="9.97228" height="52.2548" fill="#263654"/>
<rect x="16.7539" y="0.120605" width="35.5013" height="9.97228" fill="#263654"/>
<rect x="16.7539" y="20.8623" width="35.5013" height="9.97228" fill="#263654"/>
<rect x="17.1523" y="42.4023" width="35.5013" height="9.97228" fill="#263654"/>
<rect x="118.871" y="42.4023" width="35.5013" height="9.97228" fill="#263654"/>
<rect x="118.871" y="0.120605" width="35.5013" height="9.97228" fill="#263654"/>
<rect width="9.97228" height="28.3213" transform="matrix(-0.999978 -0.00662141 -0.00662141 0.999978 112.661 0.240723)" fill="#263654"/>
<rect width="9.97228" height="30.7376" transform="matrix(-0.999978 -0.00662141 -0.00662141 0.999978 112.634 20.5586)" fill="#263654"/>
<rect width="35.5013" height="9.97228" transform="matrix(-0.999978 -0.00662141 -0.00662141 0.999978 112.381 42.5225)" fill="#263654"/>
<rect width="36.2991" height="9.97228" transform="matrix(-0.999978 -0.00662141 -0.00662141 0.999978 112.522 20.9829)" fill="#263654"/>
<rect width="36.2991" height="9.97228" transform="matrix(-0.999978 -0.00662141 -0.00662141 0.999978 112.661 0.240723)" fill="#263654"/>
<rect x="59.4346" y="42.4028" width="9.97228" height="9.97228" fill="#263654"/>
<rect x="59.4346" y="18.4688" width="9.97228" height="9.97228" fill="#263654"/>
</svg>
