<svg width="155" height="54" viewBox="0 0 155 54" fill="none" xmlns="http://www.w3.org/2000/svg">
<rect y="0.86377" width="9.97228" height="52.2548" fill="#263654"/>
<rect x="118.871" y="0.86377" width="9.97228" height="52.2548" fill="#263654"/>
<rect x="16.7539" y="22.4043" width="9.97228" height="30.7146" fill="#263654"/>
<rect x="42.6816" y="0.86377" width="9.97228" height="30.7146" fill="#263654"/>
<rect x="144.398" y="0.86377" width="9.97228" height="52.2548" fill="#263654"/>
<rect x="16.7539" y="0.86377" width="35.5013" height="9.97228" fill="#263654"/>
<rect x="16.7539" y="21.6064" width="35.5013" height="9.97228" fill="#263654"/>
<rect x="17.1523" y="43.147" width="35.5013" height="9.97228" fill="#263654"/>
<rect x="118.871" y="43.147" width="35.5013" height="9.97228" fill="#263654"/>
<rect x="118.871" y="0.86377" width="35.5013" height="9.97228" fill="#263654"/>
<rect width="9.97228" height="28.3213" transform="matrix(-0.999978 -0.00662141 -0.00662141 0.999978 86.6621 0.80957)" fill="#263654"/>
<rect width="9.5628" height="31.4206" transform="matrix(-1 0 0 1 112.021 21.2349)" fill="#263654"/>
<rect width="32.6517" height="9.97228" transform="matrix(-0.999978 -0.00662141 -0.00662141 0.999978 109.246 21.7041)" fill="#263654"/>
<rect width="36.2991" height="9.5628" transform="matrix(0 -1 -1 0 112.021 37.043)" fill="#263654"/>
<rect x="59.4346" y="43.1465" width="9.97228" height="9.97228" fill="#263654"/>
<rect x="59.4346" y="19.2129" width="9.97228" height="9.97228" fill="#263654"/>
</svg>
