<svg width="155" height="53" viewBox="0 0 155 53" fill="none" xmlns="http://www.w3.org/2000/svg">
<rect width="9.97228" height="52.2548" fill="#263654"/>
<rect x="118.871" width="9.97228" height="52.2548" fill="#263654"/>
<rect x="76.1875" width="9.97228" height="28.3213" fill="#263654"/>
<rect x="16.7539" y="21.5405" width="9.97228" height="30.7146" fill="#263654"/>
<rect x="42.6816" width="9.97228" height="30.7146" fill="#263654"/>
<rect x="102.516" y="21.5405" width="9.97228" height="30.7146" fill="#263654"/>
<rect x="144.398" width="9.97228" height="52.2548" fill="#263654"/>
<rect x="16.7539" width="35.5013" height="9.97228" fill="#263654"/>
<rect x="16.7539" y="20.7422" width="35.5013" height="9.97228" fill="#263654"/>
<rect x="17.1523" y="42.2817" width="35.5013" height="9.97228" fill="#263654"/>
<rect x="76.1875" y="42.2817" width="35.5013" height="9.97228" fill="#263654"/>
<rect x="76.1875" y="20.7422" width="36.2991" height="9.97228" fill="#263654"/>
<rect x="118.871" y="42.2817" width="35.5013" height="9.97228" fill="#263654"/>
<rect x="118.871" width="35.5013" height="9.97228" fill="#263654"/>
<rect x="76.1875" width="36.2991" height="9.97228" fill="#263654"/>
<rect x="59.4346" y="42.2822" width="9.97228" height="9.97228" fill="#263654"/>
<rect x="59.4346" y="18.3486" width="9.97228" height="9.97228" fill="#263654"/>
</svg>
