<svg width="55" height="55" viewBox="0 0 55 55" fill="none" xmlns="http://www.w3.org/2000/svg">
<path d="M40.1119 0H14.888C6.67861 0 0 6.67861 0 14.888V40.1123C0 48.3213 6.67861 54.9999 14.888 54.9999H40.1123C48.3213 54.9999 54.9999 48.3213 54.9999 40.1123V14.888C54.9999 6.67861 48.3213 0 40.1119 0V0ZM51.7756 40.1123C51.7756 46.5434 46.5434 51.7756 40.1119 51.7756H14.888C8.45652 51.7756 3.22433 46.5434 3.22433 40.1123V14.888C3.22433 8.45652 8.45652 3.22433 14.888 3.22433H40.1123C46.5434 3.22433 51.7756 8.45652 51.7756 14.888V40.1123Z" fill="#263654"/>
<path d="M27.5 12.4614C19.2076 12.4614 12.4614 19.2076 12.4614 27.5C12.4614 35.7925 19.2076 42.5387 27.5 42.5387C35.7925 42.5387 42.5387 35.7925 42.5387 27.5C42.5387 19.2076 35.7925 12.4614 27.5 12.4614V12.4614ZM27.5 39.3143C20.9859 39.3143 15.6858 34.0146 15.6858 27.5C15.6858 20.9859 20.9859 15.6858 27.5 15.6858C34.0146 15.6858 39.3143 20.9859 39.3143 27.5C39.3143 34.0146 34.0146 39.3143 27.5 39.3143V39.3143Z" fill="#263654"/>
<path d="M42.8981 7.12036C40.4475 7.12036 38.4543 9.11396 38.4543 11.5641C38.4543 14.0147 40.4475 16.0082 42.8981 16.0082C45.3486 16.0082 47.3422 14.0147 47.3422 11.5641C47.3422 9.11354 45.3486 7.12036 42.8981 7.12036ZM42.8981 12.7835C42.2259 12.7835 41.6787 12.2363 41.6787 11.5641C41.6787 10.8914 42.2259 10.3447 42.8981 10.3447C43.5707 10.3447 44.1179 10.8914 44.1179 11.5641C44.1179 12.2363 43.5707 12.7835 42.8981 12.7835Z" fill="#263654"/>
</svg>
